<?xml version="1.0" encoding="UTF-8" standalone="no"?>
<svg
   xmlns:dc="http://purl.org/dc/elements/1.1/"
   xmlns:cc="http://creativecommons.org/ns#"
   xmlns:rdf="http://www.w3.org/1999/02/22-rdf-syntax-ns#"
   xmlns:svg="http://www.w3.org/2000/svg"
   xmlns="http://www.w3.org/2000/svg"
   id="svg3217"
   width="143.64mm"
   height="132.12mm"
   version="1.1"
   viewBox="0 0 143.64 132.12">
  <metadata
     id="metadata84">
    <rdf:RDF>
      <cc:Work
         rdf:about="">
        <dc:format>image/svg+xml</dc:format>
        <dc:type
           rdf:resource="http://purl.org/dc/dcmitype/StillImage" />
        <dc:title></dc:title>
      </cc:Work>
    </rdf:RDF>
  </metadata>
  <defs
     id="defs82" />
  <g
     id="outer">
    <path
       id="path1439"
       d="M 37.138964,102.61156 37.1082,98.154064 m 15.735828,10.770596 -0.834013,1.38503 -1.393627,1.39362 m 5.901049,2.0033 c 0,0 1.110561,0.63144 1.306485,0.82743 0.195924,0.19599 1.284716,2.30814 1.284716,2.30814 l 0.675044,2.32997 m -4.845694,-8.46136 c 0.425362,0.40462 1.078625,2.51683 1.078625,2.51683 l 0.500824,0.47906 -0.304835,2.13391 m 17.180163,2.74365 c 0,0 0.587915,-0.3266 0.762122,-0.23952 0.174187,0.0871 3.59285,0.0871 3.59285,0.0871 m -12.216889,-3.47143 c 0.175177,0.13981 2.657551,0.46648 2.657551,0.46648 l 2.112145,0.80566 2.395277,1.89439 0.696814,0.45728 -0.174207,1.98153 m -48.144738,-34.535 4.137214,3.418695 4.659872,5.748599 4.560738,4.242084 4.557608,2.894672 9.854202,6.5901 2.094026,1.78606 c 0,0 2.340397,1.17014 2.771482,1.41651 0.431084,0.24637 6.34367,2.64836 6.34367,2.64836 l 1.478098,0.18478 1.170198,-0.67752 1.108606,-0.3079"
       style="fill:none;stroke:#280b0b;stroke-width:0.628964" />
    <path
       id="path1442"
       d="m 67.459583,114.21317 c -0.362681,-0.56483 0.752475,-1.68314 0.752475,-1.86792 0,-0.18478 0.03585,-1.20722 0.190691,-1.80405 0.148494,-0.57239 0.27136,-1.16336 0.590365,-1.63596 0.412555,-0.61111 0.745632,-1.12601 1.294949,-1.63733 0.538015,-0.50089 1.14152,-1.00484 1.807831,-1.31515 0.422031,-0.19658 0.977273,-0.44301 1.442054,-0.46941 0.702941,-0.0398 1.24411,0.26879 1.876268,0.2772 0.599634,0.008 1.786062,-0.21561 1.786062,-0.21561 0,0 -0.309249,0.59768 -0.369538,0.92383 -0.125024,0.67635 0.04478,1.37557 0.03083,2.06326 -0.01499,0.74003 0.01564,1.49016 -0.123179,2.21721 -0.07304,0.3826 -0.196713,0.75945 -0.369544,1.10854 -0.25899,0.52305 -0.596199,1.01247 -0.98542,1.4474 -0.378643,0.42314 -0.780437,0.86504 -1.293384,1.10861 -0.471071,0.22369 -1.041929,0.12188 -1.539756,0.27713 -0.355218,0.11081 -0.775092,0.0983 -1.146865,0.11354 -0.849981,0.0345 -1.458023,-0.26449 -2.271309,-0.51386 -0.435595,-0.13355 -1.371076,0.39224 -1.672588,-0.0774 z"
       style="fill:#165044;stroke-width:0.651776" />
    <path
       id="path1444"
       d="m 76.154275,117.9283 c 0.40034,-0.18478 1.348785,-1.0697 1.97084,-1.66288 0.425779,-0.40599 0.72308,-0.95029 1.200963,-1.29338 0.365757,-0.2626 0.791582,-0.45977 1.231791,-0.55427 0.742699,-0.15943 1.55605,-0.23373 2.278804,0 0.650584,0.21039 1.632178,1.13923 1.816891,1.20096 0.184805,0.0619 1.194771,1.15996 1.909248,1.57052 0.256258,0.14723 0.83147,0.30796 0.83147,0.30796 0,0 -0.900233,0.38963 -1.262555,0.70829 -0.374621,0.32947 -0.529444,0.85936 -0.893063,1.20096 -0.562353,0.52826 -1.272332,0.87592 -1.940077,1.26255 -0.429051,0.24846 -0.871555,0.42861 -1.354977,0.53889 -0.41043,0.0937 -0.795753,0.0835 -1.200962,-0.0306 -0.650766,-0.18328 -1.202136,-0.56301 -1.786062,-0.87768 -0.712913,-0.38416 -1.389456,-0.83252 -2.094026,-1.23173 -0.223807,-0.12683 -0.541776,-0.15102 -0.677456,-0.36956 -0.135511,-0.21821 -0.811201,-0.40977 -0.03083,-0.77 z"
       style="fill:#165044;stroke-width:0.651776" />
    <path
       id="path1446"
       d="m 73.677526,119.23185 c 0.162533,0.54853 0.829972,0.85272 1.266205,1.25695 0.736572,0.68267 1.625464,1.20813 2.278805,1.97084 0.496145,0.57923 0.960848,1.1539 1.213085,1.94001 0.251182,0.78291 -0.02972,1.64671 -0.123179,2.46358 -0.105509,0.9222 -0.05103,1.92431 -0.49271,2.74072 -0.362798,0.67061 -1.104043,1.0519 -1.662941,1.57052 -0.346198,0.32126 -1.047013,0.95466 -1.047013,0.95466 0,0 -1.39995,-0.76141 -2.063262,-1.20103 -0.684495,-0.4537 -1.390955,-0.89665 -1.970841,-1.4781 -0.533498,-0.53491 -0.982813,-1.15938 -1.354977,-1.81689 -0.213137,-0.3766 -0.416973,-0.77496 -0.492703,-1.20096 -0.143821,-0.80912 -0.131776,-1.67298 0.09238,-2.46359 0.170525,-0.60145 0.603643,-1.09517 0.923828,-1.63211 0.316535,-0.5308 0.597033,-1.08977 0.98542,-1.57052 0.342137,-0.42346 0.736833,-0.80983 1.170199,-1.13937 0.113526,-0.0863 0.262424,-0.12149 0.369543,-0.2156 0.256272,-0.22526 0.7339,-0.76701 0.90812,-0.17911 z"
       style="fill:#165044;stroke-width:0.651776" />
    <path
       id="path1452"
       d="m 56.385909,114.53906 c -0.669961,-0.0955 -1.262555,0.73905 -1.632112,0.86224 -0.369544,0.12318 -2.153012,0.42026 -2.648297,1.04701 -0.571151,0.72269 -0.624121,1.75953 -0.677456,2.67912 -0.0498,0.858 0.124379,1.72369 0.338741,2.55594 0.175915,0.683 0.408866,1.36495 0.769878,1.97084 0.44736,0.75085 1.693705,2.00161 1.693705,2.00161 0,0 1.394279,-1.02538 1.970841,-1.66288 0.609221,-0.67361 1.114341,-1.44551 1.53969,-2.24797 0.433894,-0.8185 0.930149,-1.66438 1.016249,-2.58677 0.0408,-0.43695 -0.110515,-0.87605 -0.246358,-1.29339 -0.252987,-0.77717 -0.81661,-1.36104 -1.324148,-2.00167 -0.358386,-0.45233 -0.229328,-1.24274 -0.800642,-1.32408 z"
       style="fill:#165044;stroke-width:0.651776" />
    <path
       id="path1450"
       d="m 51.673568,110.56323 c -0.621299,-0.31957 -1.301987,0.4756 -1.952264,0.71545 -0.70457,0.25986 -1.329689,0.30288 -2.019789,0.59911 -0.742764,0.31885 -1.591181,0.51061 -2.177518,1.06703 -0.375469,0.35632 -1.115841,1.20819 -1.094072,1.29527 0.02177,0.0871 -0.221968,1.33223 -0.194424,1.95227 0.03415,0.7689 0.217875,1.42934 0.477497,2.09787 0.30831,0.79393 0.755213,1.53728 1.262947,2.22105 0.489718,0.65954 1.051771,1.6316 1.051771,1.6316 0,0 2.327752,-1.02857 3.390343,-1.71867 0.588482,-0.3822 1.172545,-0.79895 1.633155,-1.32832 0.662661,-0.7616 1.195944,-1.65265 1.567782,-2.5912 0.243308,-0.61411 0.513397,-1.28498 0.413721,-1.93799 -0.06915,-0.45299 -0.146623,-0.77484 -0.428673,-1.13598 -0.461399,-0.59084 -0.949442,-0.41004 -1.633155,-1.54608 -0.233681,-0.38833 -0.297392,-1.32141 -0.297392,-1.32141 z"
       style="fill:#165044;stroke-width:0.651776" />
    <path
       id="path1448"
       d="m 59.462292,117.99347 c -0.458675,-0.0189 -0.586299,0.58452 -1.047013,0.83141 -0.723798,0.38794 -1.619077,0.7835 -2.094026,1.41663 -0.284416,0.37908 -0.587759,0.91542 -0.646686,1.38568 -0.04347,0.34688 0,0.92383 0.06159,1.04701 0.06159,0.12319 0.573087,1.26125 1.016249,1.90925 0.40227,0.58829 1.038475,1.22997 1.478163,1.78613 0.189262,0.23939 0.400321,0.8314 0.400321,0.8314 0,0 0.199671,-0.8634 0.431123,-1.23172 0.324402,-0.51621 0.891825,-0.9252 1.293385,-1.29339 0.573067,-0.52539 1.23153,-0.71936 1.632112,-1.38574 0.234737,-0.39048 0.303799,-0.79543 0.338728,-1.32421 0.0335,-0.50676 -0.05306,-1.23792 -0.277142,-1.69371 -0.248294,-0.50493 -0.728099,-0.97603 -1.170198,-1.32415 -0.461855,-0.36369 -0.821955,-0.93028 -1.41657,-0.95459 z"
       style="fill:#165044;stroke-width:0.651776" />
    <path
       id="path1454"
       d="m 36.780487,101.24283 c -0.130649,0.2613 -2.788428,0.55583 -3.885172,1.24157 -0.567403,0.35476 -0.934386,0.96808 -1.306485,1.52424 -0.516239,0.77164 -0.93784,1.61276 -1.262946,2.48236 -0.167696,0.44848 -0.308414,0.91639 -0.348401,1.39356 -0.09363,1.11727 -0.161066,2.31478 0.261311,3.35339 0.298982,0.7352 1.524243,1.82907 1.524243,1.82907 0,0 0.901927,-0.69766 1.262946,-0.87096 0.871685,-0.41857 1.680344,-0.114 2.482354,-0.34844 1.271941,-0.37184 2.521722,-0.90552 3.61462,-1.65486 0.668852,-0.45859 1.192945,-0.98379 1.480704,-1.742 0.284038,-0.74844 0.260737,-1.58669 0.08709,-2.35168 -0.145177,-0.63958 -0.572879,-1.18219 -0.914572,-1.742 -0.342007,-0.56033 -0.655361,-1.16029 -1.132331,-1.61138 -0.56885,-0.53805 -1.513293,-2.2032 -1.863427,-1.50287 z"
       style="fill:#165044;stroke-width:0.651776" />
    <path
       id="path1456"
       d="m 37.477887,97.788418 c 0.53516,0.616515 1.232248,1.123987 1.990068,1.427454 0.775678,0.310571 1.623769,0.314743 2.438815,0.130616 0.95042,-0.21476 1.746955,-0.793863 2.482354,-1.393562 0.44661,-0.364213 0.670547,-0.839097 0.82743,-1.393562 0.244364,-0.863473 -0.213783,-1.715931 -0.130655,-2.569497 0.06381,-0.655296 0.502513,-1.258253 0.479042,-1.916221 -0.02992,-0.839553 -0.362518,-1.668482 -0.783891,-2.395212 -0.608341,-1.049229 -1.347938,-2.170088 -2.438815,-2.700112 -0.955374,-0.464195 -2.151708,-0.487203 -3.179168,-0.217759 -0.588078,0.15421 -1.099807,0.566394 -1.524243,1.00165 -0.441527,0.452788 -0.693751,1.029545 -1.00165,1.611385 -0.602723,1.138979 -1.237657,2.338573 -1.262946,3.61462 -0.01082,0.546318 0.278686,1.059396 0.479049,1.567782 0.25472,0.646301 0.601322,1.252648 0.914572,1.872683 0.230546,0.456373 0.374823,0.973622 0.710045,1.359735 z"
       style="fill:#165044;stroke-width:0.651776" />
    <path
       id="path1458"
       d="m 43.343871,100.52588 c 0.827495,0.47905 0.973297,0.16718 1.320172,0.26566 0.861062,0.24455 1.442707,0.0209 2.163831,0.0391 0.871164,0.0222 1.77987,-0.16868 2.61297,0.0871 0.754627,0.23171 1.445053,0.70483 2.003299,1.26295 0.788975,0.78878 1.527502,1.74539 1.785541,2.83072 0.175425,0.73775 0.153499,1.60337 -0.217752,2.2646 -0.213203,0.37972 -1.260731,0.66071 -1.260731,0.66071 0,0 -0.351691,0.60367 -0.524784,0.90707 -0.132056,0.23145 -0.19898,0.51302 -0.391958,0.69682 -0.493616,0.47012 -1.169547,0.74243 -1.829079,0.91457 -0.899972,0.23483 -1.811546,0.2989 -2.694833,0.007 -0.676022,-0.22311 -1.265945,-0.70262 -1.747281,-1.22684 -0.624754,-0.68039 -0.87716,-1.41957 -1.147256,-2.30292 -0.127631,-0.41733 -0.09862,-0.91985 -0.1179,-1.39884 -0.0496,-1.2329 0.566146,-3.65823 0.566146,-3.65823 z"
       style="fill:#165044;stroke-width:0.651776" />
    <path
       id="path1460"
       d="m 56.105645,95.376846 c -0.555724,0.158643 -0.925913,0.479577 -1.306485,0.914507 -0.220698,0.252172 0,0 0,0 0,0 -0.771116,1.741611 -0.827495,2.264596 -0.09207,0.854478 -0.03037,1.572411 0.217746,2.395281 0.136501,0.45272 0.407425,0.878 0.435503,1.35002 0.04041,0.67922 -0.02014,1.43345 -0.391939,2.0033 -0.222249,0.34062 -1.001649,0.69681 -1.001649,0.69681 0,0 0.870773,-0.0469 1.306485,-0.0437 0.610375,0.007 1.226642,0.1853 1.829079,0.0871 0.553416,-0.0903 1.024657,-0.2132 1.567782,-0.60974 0.673676,-0.4917 1.365731,-1.20767 1.698463,-2.00323 0.312162,-0.74641 0.586077,-1.54301 0.609697,-2.35174 0.02047,-0.700266 -0.07914,-1.437034 -0.217758,-2.090374 -0.169814,-0.800446 -0.39873,-1.412007 -0.783891,-2.133915 -0.318771,-0.597417 -1.045188,-1.742001 -1.045188,-1.742001 0,0 -0.783565,0.85526 -1.219408,1.088726 -0.334921,0.179369 -0.505648,0.07026 -0.870968,0.17435 z"
       style="fill:#165044;stroke-width:0.651776" />
    <path
       id="path1256"
       d="m 13.427353,70.479003 c 0,0 -1.265098,0.100374 -1.872618,-0.04367 -0.593918,-0.140849 -1.437166,-0.696814 -1.6548592,-0.783891 -0.2177519,-0.08714 -1.9312123,-1.119946 -3.0049481,-1.350089 -1.1213155,-0.240309 -2.337008,-0.312331 -3.4404648,0 -0.4264245,0.120709 -0.8098317,0.392826 -1.1322653,0.696814 -0.5157699,0.48616 -1.2194077,1.742002 -1.2194077,1.742002 l -1.08872663,1.742002 c 0,0 1.14712573,0.06994 1.69846303,0.217758 0.653601,0.175262 1.2074803,0.659402 1.8726177,0.783891 1.0848159,0.203093 2.2146696,0.04953 3.3097837,-0.08708 0.9156149,-0.114322 1.8505224,-0.249696 2.7001124,-0.609737 0.8785939,-0.372294 1.5707799,-1.087358 2.3952769,-1.567782 0.465583,-0.271269 1.437166,-0.740222 1.437166,-0.740222 z"
       style="fill:#98c5bc;stroke-width:0.651776" />
    <path
       id="path1292"
       d="m 36.643614,101.50354 -0.06159,2.27874 m -3.818495,-5.111879 4.711558,-0.923827 m -11.424981,-8.006417 4.095695,1.108606 m -8.505025,-13.250606 0.898995,-6.026451 2.42943,1.707718 m 6.008266,24.098114 -0.400334,2.817632 M 26.481435,90.910617 25.21888,96.88473 m -7.79133,-39.29362 0.98542,4.249645 0.615889,2.894668 2.278804,3.94168 1.231792,2.894733 0.492703,2.586703 1.108606,9.60783 1.047013,3.818495 1.293384,3.325818 1.601284,3.079446 2.894667,3.38741 3.510596,2.833072 6.374435,3.32582 m -25.343658,-53.890143 1.909247,7.945149 -0.307938,2.278805 -0.554303,2.463583 -2.278804,6.405198 -1.354912,4.619202 -1.231792,4.557543 -1.41657,3.880153"
       style="fill:none;stroke:#552200;stroke-width:0.368253" />
    <path
       id="path1296"
       d="m 12.338887,74.91108 c -0.217752,0 -1.148364,-0.0098 -1.698463,0.130681 -0.9567423,0.244807 -1.7502145,0.949181 -2.7001128,1.219408 -1.5067106,0.428608 -3.2043263,0.03063 -4.6598073,0.609671 -0.6663758,0.265143 -1.3528915,0.660445 -1.7420017,1.262946 -0.5066646,0.784413 -0.5228222,1.81083 -0.56615223,2.743652 -0.0121882,0.2626 -0.34471781,0.435777 0.0871033,0.78389 0.4318212,0.348114 1.7280537,0.02151 2.5258927,-0.261296 0.7514326,-0.266251 1.3891954,-0.7981 2.0032987,-1.306485 0.8067032,-0.667745 1.3145019,-1.67135 2.1775185,-2.264596 1.1686343,-0.803444 2.8784388,-0.69186 3.9195198,-1.654925 0.347931,-0.321847 0.653275,-1.262946 0.653275,-1.262946 z"
       style="fill:#98c5bc;stroke-width:0.651776" />
    <path
       id="path1298"
       d="m 10.285792,81.819906 c 0,0 -2.3755928,0.888044 -3.2631162,1.744478 -0.5195959,0.501411 -0.8011631,1.210348 -1.0887267,1.872683 -0.4408417,1.015206 -0.8944322,2.074212 -0.9581107,3.179168 -0.03311,0.574214 0.055597,1.18004 0.3048552,1.698398 0.3343676,0.695379 1.1283546,1.079732 1.5242434,1.742001 0.2545641,0.425871 0.522607,1.393628 0.522607,1.393628 0,0 0.4225725,-1.143606 0.4355037,-1.742002 0.014078,-0.651841 -0.6195978,-1.305312 -0.3919585,-1.916221 0.332523,-0.892412 1.6662653,-1.001063 2.2645957,-1.742002 0.4038531,-0.500173 0.6985081,-1.112256 0.8274951,-1.742002 0.300358,-1.466757 -0.177342,-4.488129 -0.177342,-4.488129 z"
       style="fill:#98c5bc;stroke-width:0.651776" />
    <path
       id="path1300"
       d="m 21.926512,76.736053 c 0,0 -2.005189,1.119164 -2.840049,1.891714 -0.690557,0.639002 -1.30466,1.323692 -1.630939,2.490241 -0.174591,0.624206 0.1526,1.145496 -0.108873,1.698463 -0.503803,1.065458 -1.95976,2.656574 -1.95976,2.656574 l -1.003865,1.124379 c 0,0 1.429866,0.310766 2.090376,0.08708 0.859106,-0.290953 1.450266,-1.099416 2.090376,-1.742002 0.691338,-0.693946 1.266922,-1.458349 1.749497,-2.310806 0.515705,-0.910923 0.915745,-1.899341 1.168373,-2.915199 0.242403,-0.974796 0.444831,-2.980441 0.444831,-2.980441 z"
       style="fill:#98c5bc;stroke-width:0.651776" />
    <path
       id="path1302"
       d="m 23.920946,86.121627 c 0,0 -1.019768,0.983465 -1.524243,1.480705 -0.833426,0.821433 -1.888912,1.473731 -2.482354,2.482289 -0.321573,0.546514 -0.425421,1.202527 -0.522594,1.829144 -0.151336,0.975904 0.02959,1.980747 -0.0871,2.961409 -0.09992,0.839618 -0.522607,2.482289 -0.522607,2.482289 0,0 2.065609,-1.256493 2.874333,-2.133914 0.707046,-0.767141 1.17828,-1.72851 1.654859,-2.656574 0.330033,-0.642651 0.418564,-1.292863 0.550294,-2.003234 0.211821,-1.142237 0.190065,-3.484068 0.190065,-3.484068 z"
       style="fill:#98c5bc;stroke-width:0.651776" />
    <path
       id="path1304"
       d="m 23.777556,72.499509 c 0,0 1.070867,2.086465 1.757644,3.031214 0.562131,0.773267 1.179649,1.524505 1.916221,2.13398 0.627204,0.519009 1.311178,1.027199 2.090441,1.262947 0.945727,0.286129 1.97775,0.224211 2.96141,0.130681 0.623926,-0.05931 1.144193,-0.25478 1.767486,-0.189146 0.639308,0.06726 1.803595,0.581059 1.803595,0.581059 l 1.262946,0.696813 c 0,0 -0.846657,-1.208979 -1.306485,-1.78554 -0.635221,-0.79647 -1.255646,-1.616144 -2.003299,-2.308134 C 33.311604,75.390722 32.505358,74.824655 31.675777,74.311316 30.886281,73.82281 30.065695,73.366306 29.193423,73.048369 28.591306,72.828851 27.956222,72.69615 27.32074,72.612918 26.149108,72.45949 23.777556,72.499509 23.777556,72.499509 Z"
       style="fill:#98c5bc;stroke-width:0.651776" />
    <path
       id="path1306"
       d="m 25.498244,95.702734 c 0,0 -0.855391,1.310592 -1.293384,1.940077 -0.581371,0.835446 -1.168765,1.586357 -1.816891,2.371159 -0.59223,0.71709 -1.151036,1.46194 -1.693705,2.21721 -0.289056,0.40228 -0.634139,0.77738 -0.831471,1.23179 -0.511774,1.17855 -0.862234,3.75691 -0.862234,3.75691 l -0.800642,4.24964 c 0,0 0.853957,-0.64799 1.293385,-0.95465 0.887197,-0.61913 1.882589,-1.08899 2.709889,-1.78607 0.688666,-0.58027 1.324148,-1.23811 1.847654,-1.97084 0.445795,-0.62394 0.831015,-1.37922 1.108606,-2.09402 0.326273,-0.84014 0.498635,-1.66692 0.646686,-2.55594 0.131913,-0.79211 0.165303,-1.59913 0.184765,-2.401927 0.0264,-1.088205 -0.09238,-3.264225 -0.09238,-3.264225 l -0.40034,-0.739114"
       style="fill:#98c5bc;stroke-width:0.651776" />
    <path
       id="path1308"
       d="m 36.584954,103.78476 c -0.410971,-0.0815 -0.78715,0.34492 -1.077777,0.64669 -0.325067,0.33749 -0.527476,0.78787 -0.677456,1.23179 -0.265833,0.78669 -0.433105,1.63563 -0.369537,2.46358 0.06335,0.82548 0.405945,1.61328 0.739049,2.37116 0.444172,1.01058 1.046687,1.94803 1.662941,2.86391 0.383955,0.57069 0.814785,1.11004 1.262555,1.63211 0.727969,0.84874 2.309568,2.43275 2.309568,2.43275 l 0.523507,0.27714 c 0,0 -0.246365,-1.94008 -0.461927,-2.12479 0,0 -0.852653,-1.80607 -1.200962,-2.74072 -0.266453,-0.71493 -0.565449,-1.43169 -0.677456,-2.18645 -0.121374,-0.81771 0.158459,-1.70185 0.01434,-2.48 -0.128895,-0.69584 -0.691795,-1.70805 -0.753388,-1.83117 -0.06159,-0.12318 -0.492723,-1.47816 -0.492723,-1.47816 0,0 -0.361671,-0.99083 -0.800707,-1.07784 z"
       style="fill:#98c5bc;stroke-width:0.651776" />
    <path
       id="path1310"
       d="m 39.785174,103.26334 c 0,0 1.639347,0.76909 2.463583,1.06506 0.941034,0.33788 2.963756,0.94188 2.963756,0.94188 0,0 1.354781,0.93543 2.178952,1.10333 0.855,0.17416 1.757058,0.12397 2.617533,-0.0332 0.700333,-0.12775 1.940076,-0.67524 1.940076,-0.67524 0,0 -1.156902,-0.49965 -1.648602,-0.80599 -0.604705,-0.37666 -1.724469,-1.26255 -1.724469,-1.26255 0,0 -1.265749,-0.82821 -2.015943,-1.05979 -0.387025,-0.11947 -0.797122,-0.19742 -1.200963,-0.22832 -0.706199,-0.0541 -1.418329,-0.0502 -2.12479,0 -0.508554,0.0358 -0.993306,0.0786 -1.514206,0.21561 -0.641517,0.16875 -1.934797,0.73905 -1.934797,0.73905 z"
       style="fill:#98c5bc;stroke-width:0.651776" />
    <path
       id="path1312"
       d="m 30.608168,99.743746 c 0,0 -0.572474,0.761074 -0.745501,1.198614 -0.187816,0.47489 -0.165362,1.00973 -0.299563,1.50248 -0.169651,0.6229 -0.36373,1.25453 -0.636766,1.82907 -0.260091,0.5473 -1.023418,1.50248 -1.023418,1.50248 l -0.217752,0.28307 c 0,0 0.879767,-0.25948 1.262946,-0.50083 0.560632,-0.35313 0.993046,-0.87892 1.458935,-1.35002 0.289063,-0.29232 0.658881,-0.53961 0.82743,-0.91458 0.272429,-0.60608 0.16357,-1.38222 0.09457,-2.04312 -0.05358,-0.51321 -0.720864,-1.507164 -0.720864,-1.507164 z"
       style="fill:#98c5bc;stroke-width:0.651776" />
    <path
       id="path1318"
       d="m 28.581145,90.423349 c 0,0 1.478032,1.425499 2.332119,1.984527 0.567658,0.371578 1.087749,0.737159 1.676694,1.023419 0.766358,0.372425 1.583555,0.764403 2.395277,0.892738 0.62783,0.09927 1.281717,-0.04888 1.894452,-0.217694 0.644215,-0.177804 1.267835,-0.740678 2.025068,-0.914572 0.531738,-0.122077 1.091203,-0.193773 1.63309,-0.130681 0.175426,0.0202 0.522607,0.08714 0.522607,0.08714 0,0 0.07514,-0.408859 -0.108866,-0.740353 -0.359285,-0.647409 -1.135915,-1.349697 -1.763771,-1.742001 -0.591865,-0.369818 -1.204221,-0.735595 -1.872683,-0.936342 -0.75619,-0.227079 -1.562828,-0.250542 -2.351673,-0.283066 -0.776526,-0.03194 -1.55807,-0.0065 -2.329904,0.08708 -0.624851,0.07372 -1.236158,0.236204 -1.850913,0.370209 -0.736702,0.160532 -2.201439,0.519596 -2.201439,0.519596 z"
       style="fill:#98c5bc;stroke-width:0.651776" />
    <path
       id="path1320"
       d="m 35.659432,98.114306 c 0,0 0.466854,0.224862 0.649593,0.274006 0.652036,0.175328 1.214714,-0.02281 1.872617,-0.174089 0.588391,-0.13557 1.031501,-0.441383 1.611321,-0.609737 0.307964,-0.08942 0.649416,-1.3e-4 0.958111,-0.08708 0.584291,-0.164508 1.11043,-0.497044 1.633155,-0.80566 0.426541,-0.251781 1.219407,-0.849199 1.219407,-0.849199 0,0 -1.041798,-0.408273 -1.589551,-0.500825 -0.730315,-0.123381 -1.48468,-0.145085 -2.221057,-0.06537 -0.446304,0.04823 -0.909749,0.141892 -1.306485,0.32667 -0.348967,0.162488 -0.567677,0.386308 -0.82743,0.609671 -0.420284,0.36141 -0.769095,0.799273 -1.175869,1.17587 -0.265331,0.245654 -0.823779,0.705743 -0.823779,0.705743 z"
       style="fill:#98c5bc;stroke-width:0.651776" />
    <path
       id="path1322"
       d="m 13.981362,70.153115 c 0,0 0.440255,0.998977 0.769878,1.69364 0.412776,0.869926 0.782001,1.010579 1.108606,1.724534 0.128178,0.280199 0.07391,0.618731 0.03076,0.923828 -0.06048,0.427499 -0.317911,0.808006 -0.400341,1.231791 -0.110587,0.568609 -0.119575,1.148038 -0.121471,1.733463 -0.0013,0.35939 0.09071,1.099612 0.09071,1.099612 0,0 -0.968865,-0.840009 -1.38574,-1.324148 -0.360537,-0.418636 -0.708611,-0.86028 -0.954657,-1.354977 -0.345474,-0.694729 -0.660249,-1.442837 -0.708285,-2.217212 -0.05169,-0.833882 0.3846,-1.631656 0.46192,-2.463583 0.0085,-0.09197 0.09872,-0.233401 0.14154,-0.315264 0.208516,-0.398626 0.96704,-0.731684 0.96704,-0.731684 z"
       style="fill:#98c5bc;stroke-width:0.651776" />
    <path
       id="path1439-1"
       d="m 106.50144,29.50564 0.0308,4.457496 m -15.735828,-10.770598 0.834013,-1.385024 1.393627,-1.393628 m -5.901049,-2.003298 c 0,0 -1.110561,-0.631441 -1.306485,-0.82743 -0.195924,-0.195989 -1.284716,-2.308134 -1.284716,-2.308134 l -0.675044,-2.329969 m 4.845694,8.461356 C 88.27705,21.001788 87.623787,18.889578 87.623787,18.889578 l -0.500824,-0.479056 0.304835,-2.133914 M 70.247635,13.532957 c 0,0 -0.587915,0.326605 -0.762122,0.239527 -0.174187,-0.08714 -3.59285,-0.08714 -3.59285,-0.08714 m 12.216889,3.471424 C 77.934375,17.01696 75.452001,16.69029 75.452001,16.69029 l -2.112145,-0.80566 -2.395277,-1.894387 -0.696814,-0.457286 0.174207,-1.98153 m 48.144738,34.535003 -4.13721,-3.418695 -4.65988,-5.748599 -4.56073,-4.242084 -4.55761,-2.894668 -9.854204,-6.590107 -2.094026,-1.786062 c 0,0 -2.340397,-1.170133 -2.771482,-1.416505 -0.431084,-0.246371 -6.34367,-2.648361 -6.34367,-2.648361 L 78.1098,17.15657 l -1.170198,0.677522 -1.108606,0.307899"
       style="fill:none;stroke:#280b0b;stroke-width:0.628964" />
    <path
       id="path1442-9"
       d="m 76.180817,17.904027 c 0.362681,0.564829 -0.752475,1.683147 -0.752475,1.867925 0,0.184779 -0.03585,1.20722 -0.190691,1.804051 -0.148494,0.57239 -0.27136,1.163355 -0.590365,1.635958 -0.412555,0.611105 -0.745632,1.126008 -1.294949,1.637326 -0.538015,0.50089 -1.14152,1.004843 -1.807831,1.315154 -0.422031,0.196575 -0.977273,0.443012 -1.442054,0.469409 -0.702941,0.03976 -1.24411,-0.268793 -1.876268,-0.277201 -0.599634,-0.0078 -1.786062,0.215608 -1.786062,0.215608 0,0 0.309249,-0.597679 0.369538,-0.923827 0.125024,-0.676348 -0.04478,-1.375574 -0.03083,-2.063262 0.01499,-0.740027 -0.01564,-1.490156 0.123179,-2.217212 0.07304,-0.382593 0.196713,-0.759449 0.369544,-1.108541 0.25899,-0.52305 0.596199,-1.012469 0.98542,-1.447399 0.378643,-0.423133 0.780437,-0.865037 1.293384,-1.108605 0.471071,-0.22369 1.041929,-0.121883 1.539756,-0.277136 0.355218,-0.110802 0.775092,-0.09829 1.146865,-0.113539 0.849981,-0.03454 1.458023,0.264491 2.271309,0.51386 0.435595,0.133549 1.371076,-0.392239 1.672588,0.07743 z"
       style="fill:#165044;stroke-width:0.651776" />
    <path
       id="path1444-3"
       d="m 67.486125,14.188904 c -0.40034,0.184778 -1.348785,1.069695 -1.97084,1.662876 -0.425779,0.405991 -0.72308,0.95029 -1.200963,1.293384 -0.365757,0.262601 -0.791582,0.459763 -1.231791,0.554271 -0.742699,0.159424 -1.55605,0.233727 -2.278804,0 -0.650584,-0.210394 -1.632178,-1.13924 -1.816891,-1.200963 -0.184805,-0.06192 -1.194771,-1.159965 -1.909248,-1.570519 -0.256258,-0.147236 -0.83147,-0.307964 -0.83147,-0.307964 0,0 0.900233,-0.389632 1.262555,-0.708285 0.374621,-0.329473 0.529444,-0.859367 0.893063,-1.200963 0.562353,-0.528264 1.272332,-0.875922 1.940077,-1.262555 0.429051,-0.248457 0.871555,-0.428608 1.354977,-0.538888 0.41043,-0.09366 0.795753,-0.08349 1.200962,0.03063 0.650766,0.183279 1.202136,0.563004 1.786062,0.877682 0.712913,0.384156 1.389456,0.832513 2.094026,1.231726 0.223807,0.126835 0.541776,0.151016 0.677456,0.369557 0.135511,0.218214 0.811201,0.409771 0.03083,0.770008 z"
       style="fill:#165044;stroke-width:0.651776" />
    <path
       id="path1446-5"
       d="M 69.962874,12.885352 C 69.800341,12.336817 69.132902,12.032633 68.696669,11.628402 67.960097,10.945732 67.071205,10.42027 66.417864,9.6575617 65.921719,9.0783284 65.457016,8.5036575 65.204779,7.7175505 64.953597,6.9346371 65.2345,6.0708384 65.327958,5.2539675 c 0.105509,-0.9221978 0.05103,-1.9243034 0.49271,-2.7407181 0.362798,-0.6706123 1.104043,-1.0519012 1.662941,-1.5705194 0.346198,-0.32126039 1.047013,-0.95465631 1.047013,-0.95465631 0,0 1.39995,0.76140472 2.063262,1.20102761 0.684495,0.4537013 1.390955,0.8966483 1.970841,1.4780976 0.533498,0.5349126 0.982813,1.1593792 1.354977,1.8168908 0.213137,0.3765962 0.416973,0.7749617 0.492703,1.2009625 0.143821,0.8091147 0.131776,1.6729786 -0.09238,2.4635829 -0.170525,0.6014589 -0.603643,1.0951792 -0.923828,1.6321123 -0.316535,0.5308066 -0.597033,1.0897696 -0.98542,1.5705196 -0.342137,0.423459 -0.736833,0.809832 -1.170199,1.139369 -0.113526,0.0863 -0.262424,0.121492 -0.369543,0.215608 -0.256272,0.225254 -0.7339,0.76701 -0.90812,0.179108 z"
       style="fill:#165044;stroke-width:0.651776" />
    <path
       id="path1452-7"
       d="m 87.254491,17.578139 c 0.669961,0.09549 1.262555,-0.739049 1.632112,-0.862234 0.369544,-0.123186 2.153012,-0.420265 2.648297,-1.047013 0.571151,-0.722689 0.624121,-1.759535 0.677456,-2.679125 0.0498,-0.857998 -0.124379,-1.723687 -0.338741,-2.55594 C 91.6977,9.7508309 91.464749,9.0688776 91.103737,8.4629867 90.656377,7.7121407 89.410032,6.4613826 89.410032,6.4613826 c 0,0 -1.394279,1.025374 -1.970841,1.6628761 -0.609221,0.6736105 -1.114341,1.4455088 -1.53969,2.2479753 -0.433894,0.8185 -0.930149,1.664375 -1.016249,2.586769 -0.0408,0.43695 0.110515,0.876052 0.246358,1.293384 0.252987,0.777178 0.81661,1.361039 1.324148,2.001669 0.358386,0.452333 0.229328,1.242742 0.800642,1.324083 z"
       style="fill:#165044;stroke-width:0.651776" />
    <path
       id="path1450-3"
       d="m 91.966832,21.553973 c 0.621299,0.319566 1.301987,-0.475601 1.952264,-0.715455 0.70457,-0.259863 1.329689,-0.30288 2.019789,-0.599112 0.742764,-0.318849 1.591181,-0.510602 2.177518,-1.067023 0.375469,-0.356326 1.115841,-1.208197 1.094072,-1.295274 -0.02177,-0.08708 0.221968,-1.33223 0.194424,-1.952265 -0.03415,-0.7689 -0.217875,-1.429345 -0.477497,-2.097871 -0.30831,-0.793929 -0.755213,-1.537279 -1.262947,-2.221057 -0.489718,-0.659532 -1.051771,-1.6315911 -1.051771,-1.6315911 0,0 -2.327752,1.0285681 -3.390343,1.7186681 -0.588482,0.382201 -1.172545,0.798947 -1.633155,1.328319 -0.662661,0.761601 -1.195944,1.652644 -1.567782,2.591201 -0.243308,0.614103 -0.513397,1.284977 -0.413721,1.937991 0.06915,0.452984 0.146623,0.774831 0.428673,1.13598 0.461399,0.590835 0.949442,0.410033 1.633155,1.546078 0.233681,0.388328 0.297392,1.321411 0.297392,1.321411 z"
       style="fill:#165044;stroke-width:0.651776" />
    <path
       id="path1448-1"
       d="m 84.178108,14.123726 c 0.458675,0.0189 0.586299,-0.584512 1.047013,-0.831405 0.723798,-0.387937 1.619077,-0.7835 2.094026,-1.416635 0.284416,-0.379073 0.587759,-0.91542 0.646686,-1.385676 0.04347,-0.346875 0,-0.9238273 -0.06159,-1.0470129 -0.0616,-0.1231857 -0.57309,-1.2612518 -1.016252,-1.9092475 -0.40227,-0.588293 -1.038475,-1.2299665 -1.478163,-1.7861269 -0.189262,-0.2393974 -0.400321,-0.8314055 -0.400321,-0.8314055 0,0 -0.199671,0.8634077 -0.431123,1.2317263 -0.324402,0.5162066 -0.891825,0.925196 -1.293385,1.2933843 -0.573067,0.5253966 -1.23153,0.7193652 -1.632112,1.3857409 -0.234737,0.390479 -0.303799,0.7954275 -0.338728,1.3242133 -0.0335,0.506756 0.05306,1.237918 0.277142,1.693705 0.248294,0.504931 0.728099,0.976035 1.170198,1.324148 0.461855,0.363691 0.821955,0.93028 1.41657,0.954591 z"
       style="fill:#165044;stroke-width:0.651776" />
    <path
       id="path1454-4"
       d="m 106.85991,30.87437 c 0.13065,-0.261297 2.78843,-0.555835 3.88517,-1.241569 0.56741,-0.354761 0.93439,-0.968082 1.30649,-1.524243 0.51624,-0.771637 0.93784,-1.612754 1.26295,-2.482354 0.16769,-0.448487 0.30841,-0.916397 0.3484,-1.393562 0.0936,-1.117275 0.16106,-2.314783 -0.26131,-3.353388 -0.29899,-0.735203 -1.52425,-1.829079 -1.52425,-1.829079 0,0 -0.90192,0.697661 -1.26294,0.870969 -0.87169,0.41857 -1.68035,0.113995 -2.48236,0.348439 -1.27194,0.371838 -2.52172,0.905512 -3.61462,1.654859 -0.66885,0.45859 -1.19294,0.983791 -1.4807,1.742002 -0.28404,0.748434 -0.26074,1.586683 -0.0871,2.351673 0.14517,0.639588 0.57288,1.182191 0.91457,1.742002 0.34201,0.560332 0.65536,1.160291 1.13233,1.611385 0.56885,0.538042 1.51329,2.203199 1.86343,1.502866 z"
       style="fill:#165044;stroke-width:0.651776" />
    <path
       id="path1456-2"
       d="m 106.16251,34.328782 c -0.53516,-0.616515 -1.23224,-1.123987 -1.99006,-1.427454 -0.77568,-0.310571 -1.62377,-0.314743 -2.43882,-0.130616 -0.95042,0.21476 -1.746955,0.793863 -2.482354,1.393562 -0.44661,0.364213 -0.670547,0.839097 -0.82743,1.393562 -0.244364,0.863473 0.213783,1.715931 0.130655,2.569497 -0.06381,0.655296 -0.502513,1.258253 -0.479042,1.916221 0.02992,0.839553 0.362518,1.668482 0.783891,2.395212 0.608341,1.049229 1.34794,2.170088 2.43882,2.700112 0.95537,0.464195 2.1517,0.487203 3.17916,0.217759 0.58808,-0.15421 1.09981,-0.566394 1.52425,-1.00165 0.44152,-0.452788 0.69375,-1.029545 1.00165,-1.611385 0.60272,-1.138979 1.23765,-2.338573 1.26294,-3.61462 0.0108,-0.546318 -0.27868,-1.059396 -0.47905,-1.567782 -0.25472,-0.646301 -0.60132,-1.252648 -0.91457,-1.872683 -0.23054,-0.456373 -0.37482,-0.973622 -0.71004,-1.359735 z"
       style="fill:#165044;stroke-width:0.651776" />
    <path
       id="path1458-3"
       d="m 100.29653,31.591323 c -0.827496,-0.479055 -0.973298,-0.16718 -1.320173,-0.265664 -0.861062,-0.244546 -1.442707,-0.02086 -2.163831,-0.03911 -0.871164,-0.02216 -1.77987,0.168679 -2.61297,-0.08714 -0.754627,-0.231706 -1.445053,-0.70483 -2.003299,-1.262946 -0.788975,-0.788779 -1.527502,-1.745391 -1.785541,-2.830728 -0.175425,-0.737746 -0.153499,-1.603369 0.217752,-2.264596 0.213203,-0.379725 1.260731,-0.660705 1.260731,-0.660705 0,0 0.351691,-0.603675 0.524784,-0.907077 0.132056,-0.231446 0.19898,-0.513013 0.391958,-0.696814 0.493616,-0.470126 1.169547,-0.742438 1.829079,-0.914572 0.899972,-0.234835 1.811546,-0.298904 2.694833,-0.0072 0.676022,0.223102 1.265945,0.702614 1.747281,1.226838 0.624754,0.680388 0.87716,1.419568 1.147256,2.30292 0.12763,0.417332 0.0986,0.919851 0.1179,1.398841 0.0496,1.2329 -0.566146,3.658223 -0.566146,3.658223 z"
       style="fill:#165044;stroke-width:0.651776" />
    <path
       id="path1460-8"
       d="m 87.534755,36.740354 c 0.555724,-0.158643 0.925913,-0.479577 1.306485,-0.914507 0.220698,-0.252172 0,0 0,0 0,0 0.771116,-1.741611 0.827495,-2.264596 0.09207,-0.854478 0.03037,-1.57241 -0.217746,-2.395277 -0.136501,-0.452723 -0.407425,-0.878007 -0.435503,-1.350023 -0.04041,-0.679216 0.02014,-1.433451 0.391939,-2.003299 0.222249,-0.340618 1.001649,-0.696814 1.001649,-0.696814 0,0 -0.870773,0.04693 -1.306485,0.04367 -0.610375,-0.0065 -1.226642,-0.1853 -1.829079,-0.08708 -0.553416,0.09027 -1.024657,0.213196 -1.567782,0.609736 -0.673676,0.4917 -1.365731,1.207676 -1.698463,2.003234 -0.312162,0.746414 -0.586077,1.543014 -0.609697,2.351738 -0.02047,0.700268 0.07914,1.437036 0.217758,2.090376 0.169814,0.800446 0.39873,1.412007 0.783891,2.133915 0.318771,0.597417 1.045188,1.742001 1.045188,1.742001 0,0 0.783565,-0.85526 1.219408,-1.088726 0.334921,-0.179369 0.505648,-0.07026 0.870968,-0.17435 z"
       style="fill:#165044;stroke-width:0.651776" />
    <path
       id="path1256-6"
       d="m 130.21305,61.638197 c 0,0 1.26509,-0.100374 1.87261,0.04367 0.59392,0.140849 1.43717,0.696814 1.65486,0.783891 0.21776,0.08714 1.93122,1.119946 3.00495,1.350089 1.12132,0.240309 2.33701,0.312331 3.44047,0 0.42642,-0.120709 0.80983,-0.392826 1.13226,-0.696814 0.51577,-0.48616 1.21941,-1.742002 1.21941,-1.742002 l 1.08873,-1.742002 c 0,0 -1.14713,-0.06994 -1.69847,-0.217758 -0.6536,-0.175262 -1.20748,-0.659402 -1.87261,-0.783891 -1.08482,-0.203093 -2.21467,-0.04953 -3.30979,0.08708 -0.91561,0.114322 -1.85052,0.249696 -2.70011,0.609737 -0.87859,0.372294 -1.57078,1.087358 -2.39528,1.567782 -0.46558,0.271269 -1.43716,0.740222 -1.43716,0.740222 z"
       style="fill:#98c5bc;stroke-width:0.651776" />
    <path
       id="path1292-8"
       d="m 106.99679,30.613659 0.0616,-2.278739 m 3.81849,5.111879 -4.71155,0.923827 m 11.42498,8.006417 -4.0957,-1.108606 m 8.50503,13.250606 -0.899,6.026451 -2.42943,-1.707718 m -6.00826,-24.098114 0.40033,-2.817628 m 4.09569,9.284549 1.26256,-5.974113 m 7.79133,39.29362 -0.98542,-4.249645 -0.61589,-2.894668 -2.2788,-3.94168 -1.23179,-2.894733 -0.49271,-2.586703 -1.1086,-9.60783 -1.04702,-3.818495 -1.29338,-3.325818 -1.60128,-3.079446 -2.89467,-3.38741 -3.5106,-2.833075 -6.37443,-3.325817 m 25.34366,53.890143 -1.90925,-7.945149 0.30794,-2.278805 0.5543,-2.463583 2.2788,-6.405198 1.35492,-4.619202 1.23179,-4.557543 1.41657,-3.880153"
       style="fill:none;stroke:#552200;stroke-width:0.368253" />
    <path
       id="path1296-2"
       d="m 131.30151,57.20612 c 0.21776,0 1.14837,0.0098 1.69847,-0.130681 0.95674,-0.244807 1.75021,-0.949181 2.70011,-1.219408 1.50671,-0.428608 3.20433,-0.03063 4.65981,-0.609671 0.66637,-0.265143 1.35289,-0.660445 1.742,-1.262946 0.50666,-0.784413 0.52282,-1.81083 0.56615,-2.743652 0.0122,-0.2626 0.34472,-0.435777 -0.0871,-0.78389 -0.43182,-0.348114 -1.72806,-0.02151 -2.5259,0.261296 -0.75143,0.266251 -1.38919,0.7981 -2.00329,1.306485 -0.80671,0.667745 -1.31451,1.67135 -2.17752,2.264596 -1.16864,0.803444 -2.87844,0.69186 -3.91952,1.654925 -0.34793,0.321847 -0.65328,1.262946 -0.65328,1.262946 z"
       style="fill:#98c5bc;stroke-width:0.651776" />
    <path
       id="path1298-4"
       d="m 133.35461,50.297294 c 0,0 2.37559,-0.888044 3.26311,-1.744478 0.5196,-0.501411 0.80117,-1.210348 1.08873,-1.872683 0.44084,-1.015206 0.89443,-2.074212 0.95811,-3.179168 0.0331,-0.574214 -0.0556,-1.18004 -0.30485,-1.698398 -0.33437,-0.695379 -1.12836,-1.079732 -1.52425,-1.742001 -0.25456,-0.425871 -0.5226,-1.393628 -0.5226,-1.393628 0,0 -0.42258,1.143606 -0.43551,1.742002 -0.0141,0.651841 0.6196,1.305312 0.39196,1.916221 -0.33252,0.892412 -1.66626,1.001063 -2.26459,1.742002 -0.40386,0.500173 -0.69851,1.112256 -0.8275,1.742002 -0.30036,1.466757 0.17734,4.488129 0.17734,4.488129 z"
       style="fill:#98c5bc;stroke-width:0.651776" />
    <path
       id="path1300-3"
       d="m 121.71389,55.381147 c 0,0 2.00519,-1.119164 2.84005,-1.891714 0.69055,-0.639002 1.30466,-1.323692 1.63094,-2.490241 0.17459,-0.624206 -0.1526,-1.145496 0.10887,-1.698463 0.5038,-1.065458 1.95976,-2.656574 1.95976,-2.656574 l 1.00386,-1.124379 c 0,0 -1.42986,-0.310766 -2.09037,-0.08708 -0.85911,0.290953 -1.45027,1.099416 -2.09038,1.742002 -0.69134,0.693946 -1.26692,1.458349 -1.74949,2.310806 -0.51571,0.910923 -0.91575,1.899341 -1.16838,2.915199 -0.2424,0.974796 -0.44483,2.980441 -0.44483,2.980441 z"
       style="fill:#98c5bc;stroke-width:0.651776" />
    <path
       id="path1302-3"
       d="m 119.71945,45.995573 c 0,0 1.01977,-0.983465 1.52425,-1.480705 0.83342,-0.821433 1.88891,-1.473731 2.48235,-2.482289 0.32157,-0.546514 0.42542,-1.202527 0.5226,-1.829144 0.15133,-0.975904 -0.0296,-1.980747 0.0871,-2.961409 0.0999,-0.839618 0.52261,-2.482289 0.52261,-2.482289 0,0 -2.06561,1.256493 -2.87434,2.133914 -0.70704,0.767141 -1.17828,1.72851 -1.65486,2.656574 -0.33003,0.642651 -0.41856,1.292863 -0.55029,2.003234 -0.21182,1.142237 -0.19006,3.484068 -0.19006,3.484068 z"
       style="fill:#98c5bc;stroke-width:0.651776" />
    <path
       id="path1304-8"
       d="m 119.86284,59.617691 c 0,0 -1.07086,-2.086465 -1.75764,-3.031214 -0.56213,-0.773267 -1.17965,-1.524505 -1.91622,-2.13398 -0.62721,-0.519009 -1.31118,-1.027199 -2.09044,-1.262947 -0.94573,-0.286129 -1.97775,-0.224211 -2.96141,-0.130681 -0.62393,0.05931 -1.14419,0.25478 -1.76749,0.189146 -0.63931,-0.06726 -1.80359,-0.581059 -1.80359,-0.581059 l -1.26295,-0.696813 c 0,0 0.84666,1.208979 1.30649,1.78554 0.63522,0.79647 1.25564,1.616144 2.00329,2.308134 0.71592,0.662661 1.52216,1.228728 2.35174,1.742067 0.7895,0.488506 1.61009,0.94501 2.48236,1.262947 0.60211,0.219518 1.2372,0.352219 1.87268,0.435451 1.17163,0.153428 3.54318,0.113409 3.54318,0.113409 z"
       style="fill:#98c5bc;stroke-width:0.651776" />
    <path
       id="path1306-5"
       d="m 118.14216,36.414466 c 0,0 0.85539,-1.310592 1.29338,-1.940077 0.58137,-0.835446 1.16876,-1.586357 1.81689,-2.371161 0.59223,-0.717084 1.15104,-1.461933 1.69371,-2.217212 0.28905,-0.402276 0.63413,-0.777373 0.83147,-1.231791 0.51177,-1.178541 0.86223,-3.756902 0.86223,-3.756902 l 0.80064,-4.249645 c 0,0 -0.85395,0.647996 -1.29338,0.954657 -0.8872,0.619122 -1.88259,1.088987 -2.70989,1.786061 -0.68867,0.580277 -1.32415,1.238114 -1.84766,1.970841 -0.44579,0.623945 -0.83101,1.379223 -1.1086,2.094026 -0.32627,0.840139 -0.49864,1.666917 -0.64669,2.555939 -0.13191,0.792104 -0.1653,1.599133 -0.18476,2.401925 -0.0264,1.088205 0.0924,3.264225 0.0924,3.264225 l 0.40034,0.739114"
       style="fill:#98c5bc;stroke-width:0.651776" />
    <path
       id="path1308-9"
       d="m 107.05545,28.332443 c 0.41097,0.08147 0.78715,-0.34492 1.07777,-0.646692 0.32507,-0.33749 0.52748,-0.787867 0.67746,-1.231791 0.26583,-0.786694 0.4331,-1.635632 0.36954,-2.463583 -0.0634,-0.825475 -0.40595,-1.613276 -0.73905,-2.371161 -0.44417,-1.010579 -1.04669,-1.948029 -1.66294,-2.863904 -0.38396,-0.570695 -0.81479,-1.11004 -1.26256,-1.632112 -0.72797,-0.848743 -2.30957,-2.432754 -2.30957,-2.432754 l -0.5235,-0.277136 c 0,0 0.24636,1.940077 0.46192,2.12479 0,0 0.85266,1.806072 1.20097,2.740718 0.26645,0.714933 0.56544,1.431691 0.67745,2.186448 0.12138,0.817718 -0.15846,1.701852 -0.0143,2.480008 0.1289,0.695836 0.6918,1.708044 0.75339,1.831164 0.0616,0.123186 0.49272,1.478163 0.49272,1.478163 0,0 0.36167,0.99083 0.80071,1.077842 z"
       style="fill:#98c5bc;stroke-width:0.651776" />
    <path
       id="path1310-0"
       d="m 103.85523,28.853864 c 0,0 -1.63935,-0.769096 -2.46359,-1.065067 -0.94103,-0.337881 -2.963753,-0.941882 -2.963753,-0.941882 0,0 -1.354781,-0.935429 -2.178952,-1.103326 -0.855,-0.174155 -1.757058,-0.123968 -2.617533,0.03324 -0.700333,0.127748 -1.940076,0.675239 -1.940076,0.675239 0,0 1.156902,0.499652 1.648602,0.805987 0.604705,0.376661 1.724469,1.262555 1.724469,1.262555 0,0 1.265749,0.828212 2.015943,1.059788 0.387025,0.11947 0.797122,0.197423 1.200963,0.228317 0.706199,0.0541 1.418329,0.05019 2.124787,0 0.50856,-0.03585 0.99331,-0.0786 1.51421,-0.215608 0.64152,-0.168744 1.9348,-0.739048 1.9348,-0.739048 z"
       style="fill:#98c5bc;stroke-width:0.651776" />
    <path
       id="path1312-3"
       d="m 113.03223,32.373454 c 0,0 0.57248,-0.761078 0.7455,-1.198616 0.18782,-0.474884 0.16537,-1.009731 0.29957,-1.502474 0.16965,-0.622902 0.36373,-1.254538 0.63676,-1.829079 0.26009,-0.547296 1.02342,-1.502474 1.02342,-1.502474 l 0.21775,-0.283066 c 0,0 -0.87976,0.259472 -1.26294,0.500825 -0.56064,0.353132 -0.99305,0.87892 -1.45894,1.350023 -0.28906,0.292322 -0.65888,0.539606 -0.82743,0.914572 -0.27243,0.606087 -0.16357,1.382222 -0.0946,2.043123 0.0536,0.513208 0.72086,1.507166 0.72086,1.507166 z"
       style="fill:#98c5bc;stroke-width:0.651776" />
    <path
       id="path1318-4"
       d="m 115.05926,41.693851 c 0,0 -1.47804,-1.425499 -2.33212,-1.984527 -0.56766,-0.371578 -1.08775,-0.737159 -1.6767,-1.023419 -0.76636,-0.372425 -1.58355,-0.764403 -2.39527,-0.892738 -0.62783,-0.09926 -1.28172,0.04888 -1.89446,0.217694 -0.64421,0.177804 -1.26783,0.740678 -2.02507,0.914572 -0.53173,0.122077 -1.0912,0.193773 -1.63309,0.130681 -0.17542,-0.02021 -0.5226,-0.08714 -0.5226,-0.08714 0,0 -0.0751,0.408859 0.10886,0.740353 0.35929,0.647409 1.13592,1.349697 1.76378,1.742001 0.59186,0.369818 1.20422,0.735595 1.87268,0.936342 0.75619,0.227079 1.56283,0.250542 2.35167,0.283066 0.77653,0.03194 1.55807,0.0065 2.3299,-0.08708 0.62486,-0.07372 1.23616,-0.236204 1.85092,-0.370209 0.7367,-0.160532 2.20144,-0.519596 2.20144,-0.519596 z"
       style="fill:#98c5bc;stroke-width:0.651776" />
    <path
       id="path1320-9"
       d="m 107.98097,34.002894 c 0,0 -0.46686,-0.224862 -0.64959,-0.274006 -0.65204,-0.175328 -1.21472,0.02281 -1.87262,0.174089 -0.58839,0.13557 -1.0315,0.441383 -1.61132,0.609737 -0.30797,0.08942 -0.64942,1.3e-4 -0.95811,0.08708 -0.58429,0.164508 -1.11043,0.497044 -1.63316,0.80566 -0.42654,0.251781 -1.21941,0.849199 -1.21941,0.849199 0,0 1.0418,0.408273 1.58955,0.500825 0.73032,0.123381 1.48469,0.145085 2.22106,0.06537 0.44631,-0.04823 0.90975,-0.141892 1.30649,-0.32667 0.34896,-0.162488 0.56767,-0.386308 0.82743,-0.609671 0.42028,-0.36141 0.76909,-0.799273 1.17587,-1.17587 0.26533,-0.245654 0.82378,-0.705743 0.82378,-0.705743 z"
       style="fill:#98c5bc;stroke-width:0.651776" />
    <path
       id="path1322-4"
       d="m 129.65904,61.964085 c 0,0 -0.44026,-0.998977 -0.76988,-1.69364 -0.41278,-0.869926 -0.782,-1.010579 -1.10861,-1.724534 -0.12817,-0.280199 -0.0739,-0.618731 -0.0308,-0.923828 0.0605,-0.427499 0.31791,-0.808006 0.40034,-1.231791 0.11059,-0.568609 0.11958,-1.148038 0.12147,-1.733463 0.001,-0.35939 -0.0907,-1.099612 -0.0907,-1.099612 0,0 0.96887,0.840009 1.38575,1.324148 0.36053,0.418636 0.70861,0.86028 0.95465,1.354977 0.34548,0.694729 0.66025,1.442837 0.70829,2.217212 0.0517,0.833882 -0.3846,1.631656 -0.46192,2.463583 -0.009,0.09197 -0.0987,0.233401 -0.14154,0.315264 -0.20852,0.398626 -0.96704,0.731684 -0.96704,0.731684 z"
       style="fill:#98c5bc;stroke-width:0.651776" />
  </g>
  <g
     id="g365">
    <text
       id="text1570"
       x="43.581249"
       y="63.040188"
       style="font-size:12.3028px;line-height:1.25;font-family:sans-serif;fill:#000000;stroke-width:0.307579"
       xml:space="preserve"><tspan
         id="tspan1568"
         x="43.581249"
         y="63.040188"
         style="font-size:12.8763px;font-family:'Louis George Café';stroke-width:0.307579">WEDDING</tspan></text>
    <text
       id="text1578"
       x="66.396126"
       y="49.177189"
       style="font-size:6.89818px;line-height:1.25;font-family:sans-serif;fill:#000000;stroke-width:0.172452"
       xml:space="preserve"><tspan
         id="tspan1576"
         x="66.396126"
         y="49.177189"
         style="stroke-width:0.172452">MY</tspan></text>
    <text
       id="text1570-6"
       x="44.731812"
       y="87.967438"
       style="font-size:12.3028px;line-height:1.25;font-family:sans-serif;fill:#000000;stroke-width:0.307574"
       xml:space="preserve"><tspan
         id="tspan1568-7"
         x="44.731812"
         y="87.967438"
         style="font-size:12.8763px;font-family:'Louis George Café';stroke-width:0.307574">PLANNER</tspan></text>
    <path
       id="path2779"
       d="M 45.81486,70.7854 H 61.296716"
       style="fill:none;stroke:#000000;stroke-width:0.512" />
    <path
       id="path2779-9"
       d="M 82.37166,70.7854 H 97.853516"
       style="fill:none;stroke:#000000;stroke-width:0.512" />
    <path
       id="path2490-6-7"
       d="m 73.27874,74.3694 a 4.978432,4.978432 0 0 0 -0.03891,-6.393344 4.978432,4.978432 0 0 0 -6.301184,-1.082726 4.978432,4.978432 0 0 0 -2.170931,6.01344 4.978432,4.978432 0 0 0 5.53984,3.19191"
       style="fill:none;stroke:#000000;stroke-width:0.512" />
    <path
       id="path2490-1-8-3"
       d="m 70.36034,68.0718 a 4.978432,4.978432 0 0 0 0.03891,6.393344 4.978432,4.978432 0 0 0 6.301184,1.082726 4.978432,4.978432 0 0 0 2.170982,-6.01344 4.978432,4.978432 0 0 0 -5.53984,-3.19191"
       style="fill:none;stroke:#000000;stroke-width:0.512" />
  </g>
</svg>
